<?xml version="1.0" standalone="no"?>
<!DOCTYPE svg PUBLIC "-//W3C//DTD SVG 20010904//EN"
 "http://www.w3.org/TR/2001/REC-SVG-20010904/DTD/svg10.dtd">
<svg version="1.0" xmlns="http://www.w3.org/2000/svg"
 width="1201.000000pt" height="1201.000000pt" viewBox="0 0 1201.000000 1201.000000"
 preserveAspectRatio="xMidYMid meet">
<metadata>
Created by potrace 1.14, written by Peter Selinger 2001-2017
</metadata>
<g transform="translate(0.000000,1201.000000) scale(0.100000,-0.100000)"
fill="#000000" stroke="none">
<path d="M1657 7784 c-2 -2 -12 -5 -23 -8 -61 -12 -84 -19 -84 -26 0 -4 -13
-10 -30 -13 -19 -4 -30 -13 -30 -23 0 -10 -3 -14 -6 -11 -12 11 -49 -15 -130
-90 -13 -12 -24 -20 -24 -17 0 2 -19 -16 -42 -40 -22 -25 -46 -42 -51 -39 -6
3 -7 2 -4 -4 3 -5 -17 -32 -46 -59 -57 -55 -148 -154 -140 -154 2 0 -7 -12
-21 -27 -41 -45 -75 -84 -99 -116 -12 -16 -31 -38 -41 -48 -11 -10 -17 -19
-13 -19 6 0 -1 -9 -48 -61 -8 -9 -15 -20 -15 -25 0 -5 -14 -23 -30 -41 -17
-18 -30 -37 -30 -43 0 -6 -7 -13 -15 -16 -8 -4 -15 -12 -15 -20 0 -7 -6 -17
-14 -21 -8 -4 -15 -11 -15 -16 -1 -12 -34 -61 -51 -74 -9 -8 -11 -12 -3 -13 7
0 -1 -15 -18 -32 -16 -18 -29 -38 -29 -45 0 -7 -4 -13 -9 -13 -5 0 -12 -11
-15 -25 -4 -14 -11 -25 -16 -25 -6 0 -10 -6 -10 -14 0 -7 -9 -25 -20 -38 -10
-14 -16 -28 -13 -32 3 -3 1 -6 -5 -6 -7 0 -9 -7 -5 -17 3 -10 2 -15 -2 -10 -8
7 -31 -43 -41 -92 -4 -18 -1 -22 11 -18 8 4 15 3 15 -2 0 -22 52 -17 88 8 62
44 121 73 134 65 7 -4 8 -3 4 4 -6 11 5 15 30 11 4 0 10 3 13 8 11 14 72 44
65 30 -6 -9 -4 -9 8 1 9 7 20 12 24 10 5 -1 26 6 48 15 21 9 47 17 57 17 11 0
19 4 19 9 0 4 12 6 26 3 19 -3 25 -1 20 6 -5 8 3 11 24 8 17 -2 33 1 36 5 3 5
9 7 14 4 5 -3 11 -1 15 5 4 6 11 8 16 4 5 -3 15 -1 22 4 7 5 19 9 27 9 8 0 40
3 70 8 30 4 72 8 92 9 21 0 38 3 38 6 0 9 54 5 69 -4 9 -6 12 -5 7 2 -8 13
201 12 221 -1 6 -4 14 -3 18 3 3 5 11 10 16 10 6 0 7 -5 3 -11 -5 -8 1 -10 19
-7 17 3 33 -1 47 -14 11 -10 25 -16 32 -12 7 4 8 3 4 -4 -4 -7 -2 -12 4 -12
20 0 140 -131 140 -153 0 -11 3 -17 7 -14 6 7 29 -36 31 -57 0 -5 5 -12 12
-16 6 -4 12 -16 13 -28 0 -11 5 -18 9 -16 4 3 9 0 9 -5 3 -22 23 -76 40 -105
8 -14 8 -16 -3 -10 -10 6 -11 5 -1 -8 7 -8 9 -19 5 -23 -4 -5 -1 -5 6 -1 8 5
12 -2 12 -23 0 -17 4 -31 9 -31 5 0 8 -11 6 -25 -1 -14 2 -28 6 -31 5 -3 9
-16 9 -29 0 -13 4 -26 9 -29 5 -3 7 -15 4 -26 -3 -11 -1 -20 4 -20 5 0 9 -10
10 -22 2 -53 7 -98 13 -98 3 0 5 -17 5 -37 0 -37 13 -65 27 -57 4 2 9 0 13 -6
6 -10 36 1 62 24 32 28 43 36 51 36 5 0 15 7 22 15 7 9 19 14 27 11 7 -3 13
-1 13 4 0 9 30 22 41 17 4 -1 16 7 28 17 12 11 21 16 21 12 0 -4 9 -2 21 4 11
7 33 14 47 16 15 3 30 11 34 17 4 7 8 8 8 3 0 -5 6 -3 13 3 8 6 16 8 19 6 3
-3 18 0 34 7 16 6 40 12 54 13 14 1 35 7 48 13 12 7 22 10 22 6 0 -3 8 0 17 7
15 12 16 12 8 -1 -7 -12 -6 -13 6 -3 8 6 17 12 22 12 4 1 8 1 10 2 4 1 52 8
77 12 14 2 32 7 39 12 10 6 12 4 6 -5 -6 -10 -4 -11 6 -4 17 10 20 11 112 19
69 6 274 7 327 1 34 -4 110 -36 110 -47 0 -5 7 -9 15 -9 7 0 18 -6 22 -13 4
-8 16 -17 26 -20 10 -4 16 -11 12 -16 -3 -5 4 -12 15 -16 11 -3 20 -13 20 -21
0 -8 7 -17 15 -20 8 -4 15 -12 15 -20 0 -8 5 -14 11 -14 5 0 7 -4 4 -10 -3 -5
-2 -10 2 -10 9 0 48 -80 45 -92 -1 -5 1 -8 6 -8 9 0 33 -53 35 -79 0 -11 5
-17 9 -15 7 5 12 -13 11 -43 -1 -7 3 -13 7 -13 4 0 11 -16 14 -35 4 -19 11
-35 16 -35 6 0 10 -5 10 -11 0 -5 -4 -7 -10 -4 -5 3 -3 -10 5 -29 8 -20 15
-45 15 -56 0 -12 4 -19 8 -16 4 3 8 -5 8 -17 0 -29 15 -120 22 -131 3 -5 6
-32 7 -60 0 -40 4 -52 19 -54 10 -2 16 2 15 10 -3 22 13 78 22 78 5 0 8 3 7 8
-2 13 14 46 35 70 11 12 17 22 13 22 -10 0 50 57 94 91 44 33 114 69 135 69 8
0 15 5 15 10 0 6 5 10 11 10 5 0 7 -6 3 -12 -6 -9 -3 -9 9 0 9 8 21 11 27 7 5
-3 10 -2 10 3 0 11 -4 10 157 12 72 1 139 -3 150 -8 10 -6 23 -11 28 -11 33
-5 84 -25 79 -32 -3 -5 6 -9 20 -9 14 0 26 -5 26 -10 0 -6 12 -16 28 -23 15
-6 32 -16 39 -22 7 -5 19 -16 28 -23 8 -7 15 -10 15 -7 0 3 11 -5 25 -17 56
-50 65 -58 72 -60 5 -2 7 -6 6 -10 -2 -5 2 -8 7 -8 6 0 57 -47 115 -105 58
-58 103 -105 100 -105 -2 0 11 -16 30 -35 19 -19 35 -37 35 -41 0 -3 14 -19
31 -35 17 -16 27 -29 23 -29 -5 0 -4 -4 2 -8 18 -12 67 -82 58 -82 -5 0 -4 -4
2 -8 7 -4 14 -24 17 -46 3 -21 10 -43 16 -49 6 -6 11 -20 11 -32 0 -12 6 -27
13 -34 10 -11 9 -13 -3 -7 -9 5 -8 2 3 -7 9 -8 17 -19 17 -26 0 -6 4 -11 10
-11 5 0 9 -3 8 -7 -3 -15 23 -66 52 -103 16 -20 27 -40 23 -44 -3 -3 1 -6 10
-6 15 0 22 -11 18 -32 0 -5 2 -8 7 -8 14 0 62 -47 55 -54 -4 -4 0 -4 10 0 11
4 17 1 17 -8 0 -7 14 -22 30 -31 17 -10 30 -23 30 -28 0 -6 4 -8 9 -4 6 3 14
-3 20 -12 6 -10 11 -13 11 -8 0 6 3 6 8 0 7 -11 118 -66 139 -69 7 -1 15 -5
19 -8 3 -4 12 -4 20 -1 8 3 14 0 14 -6 0 -6 13 -9 30 -7 17 2 30 0 30 -5 0 -4
56 -8 125 -7 69 0 125 4 125 8 0 5 8 7 18 5 9 -1 22 1 27 6 6 4 22 10 35 12
14 2 42 11 62 21 21 9 42 16 48 16 5 0 10 4 10 9 0 8 27 19 40 17 10 -2 38 29
33 37 -2 4 -1 7 4 6 16 -4 43 13 43 28 0 8 4 12 9 8 5 -3 16 4 24 15 7 11 17
17 20 13 4 -3 7 -1 7 6 0 7 5 9 10 6 6 -4 9 -3 8 2 -3 8 67 101 87 115 6 4 6
8 2 8 -4 0 4 12 18 27 14 15 25 35 25 45 0 9 5 20 10 23 6 4 8 11 5 16 -4 5
-1 9 4 9 6 0 11 7 11 16 0 8 4 13 9 10 5 -4 8 1 7 11 -2 9 5 32 15 52 9 19 15
41 12 48 -3 7 -1 13 4 13 5 0 9 10 10 22 1 11 8 25 15 29 7 5 9 9 3 9 -5 0 1
7 15 15 14 8 21 15 15 15 -5 0 1 10 15 21 14 11 19 17 11 13 -9 -5 -12 -3 -7
4 4 7 14 12 22 12 8 0 13 4 10 9 -3 5 62 78 144 162 83 85 150 149 150 144 0
-6 8 0 18 11 24 30 159 124 178 124 9 0 12 5 8 12 -5 8 -2 9 9 5 10 -3 17 -2
17 3 0 6 7 10 15 10 8 0 15 4 15 8 0 5 6 9 13 10 6 0 21 3 32 6 11 2 26 5 33
5 8 1 10 6 6 14 -5 7 0 6 11 -3 10 -8 16 -10 12 -4 -5 9 19 12 86 12 50 0 97
1 102 2 12 3 15 3 51 -5 39 -9 86 -17 102 -18 6 0 12 -4 12 -9 0 -5 4 -7 9 -3
5 3 12 1 16 -5 3 -5 15 -10 26 -10 11 0 18 -4 15 -8 -2 -4 4 -8 14 -9 11 -1
32 -13 47 -27 14 -14 31 -22 37 -19 6 3 8 3 4 -1 -8 -10 14 -36 25 -29 4 2 7
-1 7 -6 0 -6 8 -20 18 -30 32 -37 42 -50 42 -61 0 -5 4 -10 8 -10 9 0 37 -78
34 -92 -1 -5 2 -8 8 -8 6 0 9 -3 9 -7 -3 -19 2 -33 12 -33 6 0 8 7 5 16 -3 8
-2 13 3 10 4 -3 9 9 10 27 3 41 8 90 11 97 1 3 3 10 5 15 1 6 3 12 4 15 2 3 4
19 6 35 2 17 6 41 10 55 3 14 8 32 10 40 2 8 4 16 5 18 3 3 4 6 14 57 4 22 12
42 16 45 5 3 12 20 15 38 3 18 10 41 15 50 13 25 23 56 22 65 -1 4 2 7 7 7 5
0 12 10 16 23 4 12 8 24 10 27 1 3 5 13 9 22 5 10 12 15 17 12 5 -3 6 1 4 8
-3 8 4 24 15 36 11 12 18 22 15 22 -4 0 0 6 7 14 7 8 26 31 43 50 16 20 35 36
42 36 7 0 13 7 13 15 0 8 11 17 25 21 14 3 25 10 25 15 0 5 8 9 18 9 10 0 22
3 26 8 4 4 20 8 34 8 15 1 29 3 32 4 13 7 300 4 300 -2 0 -5 5 -8 11 -8 5 0 7
5 3 12 -5 7 -3 8 6 3 6 -4 29 -10 49 -12 40 -5 73 -11 81 -13 3 -1 15 -1 28 0
12 1 22 -4 22 -12 0 -10 3 -9 10 2 5 8 10 10 10 5 0 -6 14 -12 32 -13 18 -2
35 -6 38 -10 3 -4 18 -7 33 -7 16 1 30 -2 33 -6 2 -4 15 -6 29 -5 13 2 22 -1
19 -5 -3 -5 3 -9 14 -9 10 0 22 -3 26 -7 3 -4 17 -8 29 -10 32 -4 137 -44 143
-54 3 -5 16 -9 29 -9 13 0 27 -5 30 -10 4 -6 11 -8 16 -5 5 4 9 2 9 -3 0 -6
11 -13 25 -16 16 -4 23 -11 19 -18 -4 -6 -3 -8 4 -4 6 3 17 0 25 -8 8 -8 17
-12 21 -9 3 4 6 1 6 -5 0 -6 9 -14 20 -17 11 -4 18 -10 15 -15 -11 -18 55 -6
72 13 13 14 14 18 3 12 -12 -7 -13 -6 -3 6 6 8 13 38 14 67 2 29 5 52 9 52 3
0 7 10 7 23 4 52 16 117 23 117 4 0 7 6 8 13 0 6 4 28 7 47 4 19 8 40 8 45 1
6 4 12 7 15 13 13 30 51 21 46 -7 -4 -8 -1 -5 8 3 9 11 13 17 9 6 -3 7 -1 3 6
-4 6 -1 24 7 39 7 16 13 36 11 45 -1 10 2 15 7 11 5 -3 9 0 9 7 0 7 8 21 18
32 12 15 13 18 2 12 -11 -6 -10 -3 3 12 9 11 17 25 17 32 0 7 5 9 10 6 6 -4 9
-3 8 2 -3 13 13 53 22 53 4 0 11 11 14 25 4 14 10 23 15 20 9 -5 26 23 22 38
-1 5 3 6 8 3 5 -3 20 5 32 19 13 13 30 25 37 25 7 0 15 6 18 14 3 7 24 19 47
26 23 8 47 17 52 21 6 4 16 4 23 0 6 -4 27 -6 44 -4 72 8 164 8 181 0 10 -5
17 -4 17 3 0 6 4 8 10 5 19 -12 50 -14 50 -4 0 6 6 4 14 -4 9 -8 26 -12 40
-10 15 3 32 0 40 -6 10 -9 16 -9 21 -1 5 8 11 8 20 0 8 -6 22 -11 32 -10 33 4
54 0 49 -8 -3 -5 8 -6 25 -4 16 2 29 0 29 -5 0 -5 14 -9 30 -8 17 1 33 -2 36
-7 3 -4 18 -8 35 -8 16 0 29 -5 29 -12 0 -6 3 -9 6 -5 3 3 26 -1 52 -8 25 -8
50 -11 55 -8 6 4 7 1 2 -7 -6 -10 -4 -12 8 -7 10 3 17 2 17 -3 0 -6 9 -10 20
-10 11 0 20 -4 20 -10 0 -5 6 -7 13 -4 8 3 20 -2 27 -10 7 -9 16 -13 22 -10 5
3 16 0 24 -7 9 -7 25 -14 36 -16 11 -2 26 -10 34 -18 9 -8 20 -15 25 -15 6 0
26 -12 46 -27 38 -29 63 -35 75 -18 4 6 13 10 20 10 14 0 12 48 -3 78 -6 9 -6
17 -2 17 4 0 3 4 -3 8 -16 10 -54 88 -47 96 4 3 -1 6 -10 6 -10 0 -17 3 -18 8
-2 26 -9 46 -17 51 -4 3 -24 32 -43 64 -18 31 -37 57 -42 57 -4 0 -5 5 -2 10
3 6 1 10 -4 10 -6 0 -11 7 -11 16 0 9 -5 12 -12 8 -7 -5 -9 -2 -6 8 4 8 -2 20
-14 27 -11 7 -17 18 -14 27 3 8 2 13 -2 10 -4 -2 -23 20 -42 49 -19 30 -41 54
-47 55 -7 0 -13 7 -13 15 0 8 -5 15 -11 15 -6 0 -9 6 -7 12 3 7 -6 21 -19 31
-13 10 -23 23 -23 28 0 5 -8 17 -17 28 -10 10 -29 32 -43 49 -14 16 -38 47
-55 67 -16 20 -42 49 -57 65 -16 16 -28 32 -28 37 0 4 -9 14 -20 21 -11 7 -20
20 -20 29 0 9 -3 14 -6 10 -7 -7 -54 41 -54 56 0 6 -3 8 -6 5 -7 -7 -114 100
-114 115 0 5 -3 8 -6 4 -3 -3 -16 4 -29 16 -36 35 -70 61 -72 57 -2 -3 -10 5
-18 18 -9 12 -22 22 -29 22 -7 0 -21 8 -32 19 -11 10 -37 24 -57 32 -20 7 -34
15 -32 19 3 5 -26 10 -72 13 -7 0 -13 5 -13 11 0 6 -5 4 -10 -4 -5 -8 -10 -10
-10 -5 0 7 -35 11 -94 10 -52 0 -92 -3 -89 -7 3 -7 -75 -13 -101 -9 -4 1 -15
-4 -24 -11 -13 -11 -14 -11 -7 2 7 12 6 13 -6 4 -8 -6 -32 -15 -54 -19 -22 -5
-47 -10 -55 -12 -36 -9 -45 -12 -47 -13 -5 -4 -23 -8 -49 -9 -16 -1 -23 -5
-18 -12 4 -7 0 -9 -14 -5 -11 4 -23 2 -26 -3 -4 -6 -13 -8 -20 -5 -8 3 -17 0
-21 -5 -3 -6 -11 -9 -16 -6 -5 4 -9 2 -9 -3 0 -5 -6 -9 -12 -10 -49 -6 -77
-16 -71 -25 3 -5 2 -7 -4 -4 -5 3 -27 1 -49 -5 -21 -6 -42 -11 -46 -10 -5 1
-8 -3 -8 -9 0 -6 -7 -9 -15 -5 -8 3 -15 1 -15 -4 0 -6 -8 -10 -19 -10 -10 0
-32 -7 -47 -15 -16 -8 -39 -15 -52 -15 -12 0 -25 -6 -28 -13 -2 -7 -12 -14
-22 -14 -34 -4 -122 -40 -114 -48 4 -4 2 -5 -4 -2 -16 9 -77 -17 -67 -28 5 -4
1 -6 -9 -2 -9 3 -19 3 -23 -1 -4 -4 -11 -8 -16 -8 -5 -1 -11 -3 -14 -4 -3 -1
-8 -3 -12 -5 -5 -1 -30 -11 -56 -23 -27 -12 -54 -19 -60 -15 -7 3 -9 2 -4 -2
9 -11 -51 -37 -66 -28 -5 3 -7 1 -3 -5 3 -6 -6 -13 -24 -17 -16 -4 -30 -11
-30 -16 0 -6 -3 -8 -8 -5 -4 2 -30 -6 -57 -19 -27 -13 -53 -21 -58 -18 -6 3
-7 1 -3 -5 3 -6 -6 -13 -24 -17 -16 -4 -30 -11 -30 -17 0 -6 -9 -8 -21 -5 -12
3 -18 3 -15 0 8 -8 -105 -63 -116 -57 -4 3 -8 0 -8 -5 0 -6 -6 -11 -13 -11 -7
0 -18 -5 -25 -12 -6 -6 -22 -13 -34 -15 -13 -2 -25 -8 -26 -13 -2 -6 -8 -8
-13 -4 -5 3 -9 1 -9 -3 0 -5 -23 -17 -50 -28 -27 -11 -50 -23 -50 -26 0 -4
-13 -10 -30 -14 -16 -4 -30 -10 -30 -15 0 -5 -13 -11 -30 -15 -16 -4 -30 -10
-30 -14 0 -4 -16 -13 -35 -20 -19 -7 -35 -16 -35 -20 0 -3 -9 -7 -20 -8 -11
-1 -27 -9 -36 -17 -8 -9 -24 -16 -35 -16 -10 0 -19 -4 -19 -9 0 -9 -40 -27
-48 -22 -1 1 -10 -5 -18 -14 -9 -8 -23 -15 -31 -15 -9 0 -14 -3 -10 -6 9 -9
-65 -45 -81 -39 -7 3 -11 1 -7 -4 3 -5 -13 -17 -35 -27 -22 -10 -40 -22 -40
-27 0 -4 -4 -5 -10 -2 -5 3 -10 2 -10 -3 0 -5 -8 -12 -17 -15 -25 -8 -124 -64
-136 -76 -6 -6 -19 -11 -30 -11 -10 0 -16 -4 -13 -9 3 -5 -6 -12 -19 -15 -14
-4 -24 -10 -21 -14 2 -4 -5 -9 -17 -9 -12 -1 -23 -7 -25 -13 -2 -5 -8 -8 -13
-4 -5 3 -9 1 -9 -5 0 -9 -28 -28 -77 -50 -13 -6 -23 -15 -23 -21 0 -6 -4 -8
-10 -5 -5 3 -10 2 -10 -4 0 -6 -6 -8 -14 -5 -7 3 -16 -2 -19 -10 -4 -9 -14
-16 -22 -16 -9 0 -13 -4 -10 -10 3 -5 -3 -10 -14 -10 -12 0 -21 -5 -21 -11 0
-5 -4 -7 -10 -4 -5 3 -10 2 -10 -3 0 -5 -9 -12 -21 -15 -12 -3 -18 -10 -14
-17 3 -6 3 -10 -2 -9 -16 3 -53 -14 -48 -21 3 -5 -5 -12 -17 -16 -13 -4 -25
-9 -28 -13 -14 -17 -71 -51 -87 -51 -15 0 -16 -2 -3 -10 13 -8 12 -10 -3 -10
-10 0 -20 -7 -23 -15 -4 -8 -11 -15 -18 -15 -6 0 -28 -16 -48 -35 -21 -18 -38
-31 -38 -27 0 4 -7 -2 -15 -12 -8 -11 -15 -16 -15 -11 0 4 -11 -4 -24 -18 -13
-14 -27 -23 -30 -20 -3 4 -6 -1 -6 -10 0 -9 -3 -17 -7 -17 -5 0 -29 -20 -55
-44 -26 -24 -51 -41 -54 -37 -4 3 -5 1 -1 -5 3 -5 -9 -26 -28 -46 -18 -20 -30
-39 -27 -42 3 -3 1 -6 -5 -6 -6 0 -13 -8 -17 -17 -19 -54 -35 -86 -36 -73 -1
8 -3 22 -5 30 -2 8 -7 31 -11 50 -3 19 -9 37 -12 40 -4 3 -8 14 -9 25 -1 11
-4 31 -8 45 -4 14 -7 31 -7 38 -1 6 -4 12 -8 12 -3 0 -5 13 -4 30 1 16 -2 27
-7 24 -5 -3 -9 11 -9 30 0 20 -4 36 -9 36 -5 0 -8 8 -6 18 1 9 -1 24 -6 33 -8
16 -21 72 -22 97 -1 20 -14 14 -22 -10 -4 -13 -7 -26 -6 -30 1 -5 -4 -8 -9 -8
-5 0 -9 -3 -8 -7 0 -5 -10 -30 -23 -58 -13 -27 -24 -52 -24 -55 -1 -3 -11 -27
-23 -53 -12 -27 -22 -53 -22 -58 0 -5 -5 -9 -11 -9 -5 0 -8 -4 -5 -9 4 -5 1
-11 -4 -13 -6 -2 -12 -13 -13 -26 0 -12 -5 -22 -10 -22 -5 0 -7 -7 -3 -15 3
-8 1 -15 -4 -15 -6 0 -10 -9 -10 -20 0 -11 -4 -20 -9 -20 -5 0 -12 -11 -15
-24 -4 -18 -13 -24 -33 -24 -16 0 -32 3 -37 6 -19 11 -137 11 -130 0 5 -7 2
-8 -6 -3 -19 12 -60 13 -53 2 3 -5 -5 -7 -18 -6 -13 2 -30 0 -37 -5 -7 -4 -14
-6 -15 -5 -1 2 -8 13 -14 24 -19 30 -44 87 -49 110 -2 11 -8 21 -14 23 -5 2
-10 10 -10 17 0 7 -9 30 -19 52 -35 70 -55 118 -53 126 1 4 -3 7 -9 7 -5 0 -8
4 -4 9 3 5 1 12 -5 16 -5 3 -10 15 -10 26 0 13 -4 18 -12 13 -7 -5 -9 -1 -6
12 6 22 -17 48 -33 38 -8 -4 -7 -9 2 -15 8 -5 9 -9 3 -9 -6 0 -15 -15 -19 -32
-4 -18 -9 -35 -9 -38 -1 -3 -6 -24 -10 -47 -4 -24 -12 -45 -17 -49 -5 -3 -7
-10 -3 -15 3 -5 1 -15 -4 -22 -5 -7 -12 -28 -15 -47 -5 -37 -9 -55 -25 -113
-6 -20 -7 -38 -4 -41 3 -3 0 -6 -7 -6 -7 0 -10 -10 -7 -25 3 -14 0 -25 -5 -25
-5 0 -9 -13 -9 -28 0 -16 -3 -32 -7 -36 -4 -4 -9 -19 -11 -34 -6 -50 -13 -36
-11 26 1 34 5 60 8 58 10 -7 7 59 -4 66 -6 5 -5 8 2 8 9 0 8 10 -5 38 -9 20
-21 40 -25 43 -5 3 -9 10 -9 15 -1 17 -35 53 -43 46 -5 -4 -5 -1 -1 6 8 14
-70 89 -86 84 -5 -1 -7 2 -4 7 3 5 -7 20 -23 34 -17 14 -27 28 -24 31 4 3 -1
6 -9 6 -8 0 -26 10 -40 23 -30 26 -49 42 -103 82 -22 16 -45 34 -52 40 -36 30
-43 35 -53 35 -5 0 -10 5 -10 11 0 5 -4 8 -9 5 -5 -3 -11 1 -15 9 -3 8 -12 15
-21 15 -8 0 -15 5 -15 10 0 6 -6 10 -14 10 -8 0 -16 7 -20 15 -3 8 -12 15 -21
15 -8 0 -15 5 -15 12 0 6 -3 9 -6 5 -4 -3 -12 -1 -20 6 -28 25 -39 33 -49 35
-5 1 -17 7 -26 14 -25 20 -72 49 -91 55 -10 3 -18 9 -18 14 0 5 -6 9 -14 9 -8
0 -16 4 -18 9 -1 5 -10 11 -18 13 -8 2 -25 13 -39 25 -14 12 -28 20 -32 17 -4
-2 -10 0 -14 6 -4 6 -11 7 -17 4 -7 -4 -8 -2 -4 4 4 7 -3 14 -19 18 -14 3 -25
10 -25 16 0 5 -4 7 -9 3 -6 -3 -14 3 -20 12 -6 10 -11 14 -11 8 0 -5 -4 -4 -9
3 -4 7 -14 14 -22 16 -16 2 -71 36 -80 49 -3 5 -10 9 -15 9 -25 2 -44 11 -44
21 0 6 -3 7 -6 4 -4 -3 -18 2 -32 13 -13 11 -28 17 -33 14 -5 -3 -9 0 -9 5 0
6 -7 11 -15 11 -8 0 -15 4 -15 9 0 5 -14 11 -31 15 -17 3 -28 10 -24 16 4 6 3
10 -2 9 -17 -4 -63 14 -57 22 5 8 -9 13 -28 10 -5 0 -8 3 -8 9 0 6 -3 9 -7 8
-9 -2 -65 23 -73 33 -5 5 -39 20 -50 21 -3 0 -17 9 -32 20 -16 11 -28 16 -28
11 0 -4 -4 -3 -8 2 -8 12 -138 79 -146 76 -11 -3 -65 32 -60 40 2 4 -5 5 -16
2 -11 -3 -20 0 -20 6 0 6 -9 11 -19 11 -11 0 -23 5 -26 10 -4 6 -11 8 -16 5
-5 -4 -9 -2 -9 4 0 5 -13 12 -30 16 -16 4 -30 11 -30 16 0 5 -9 9 -20 9 -11 0
-20 5 -20 11 0 5 -5 7 -10 4 -6 -3 -17 1 -26 9 -8 9 -22 16 -30 16 -8 0 -14 5
-14 10 0 6 -3 9 -7 9 -23 -4 -43 3 -59 19 -10 9 -19 16 -21 15 -8 -7 -62 11
-57 18 3 5 -2 9 -10 9 -15 0 -86 30 -96 40 -3 3 -9 5 -15 6 -24 3 -55 17 -55
26 0 5 -4 7 -9 4 -5 -3 -22 1 -37 9 -16 8 -37 15 -46 15 -10 0 -18 5 -18 10 0
6 -6 10 -12 10 -14 0 -120 41 -128 50 -3 3 -16 7 -30 9 -13 1 -33 9 -44 17
-11 8 -29 14 -40 14 -11 0 -28 8 -39 18 -15 12 -18 13 -12 2 6 -12 5 -13 -6
-2 -7 6 -21 12 -31 12 -10 0 -18 5 -18 12 0 6 -2 9 -6 6 -3 -3 -27 3 -53 13
-27 10 -51 15 -55 12 -3 -4 -6 -1 -6 5 0 7 -14 12 -31 12 -16 0 -28 4 -25 9 4
5 -2 8 -11 6 -10 -1 -23 1 -29 6 -10 8 -44 17 -72 18 -7 1 -11 5 -8 9 4 7 -22
12 -71 15 -7 0 -13 3 -13 7 0 4 -6 7 -12 8 -38 3 -83 15 -86 22 -2 5 -10 6
-17 4 -8 -3 -20 -2 -27 2 -15 9 -19 10 -66 12 -24 2 -31 6 -26 15 5 8 2 8 -9
-2 -9 -7 -17 -9 -17 -4 0 5 -21 9 -46 8 -25 0 -48 3 -51 8 -4 7 -188 9 -196 1z"/>
</g>
</svg>
